<svg id="Lag_1" data-name="Lag 1" xmlns="http://www.w3.org/2000/svg" viewBox="0 0 1485 189"><defs><style>.cls-1{fill:#fff;}</style></defs><path class="cls-1" d="M821,179.69H746.14V28.83h73.69v26.3H772.44v35h40.81v26.11H772.44v37.14H821Z"/><path class="cls-1" d="M905.9,179.69a78.78,78.78,0,0,1-30.85-5.89,71.21,71.21,0,0,1-24-16.25,74.6,74.6,0,0,1-15.57-24.47,81.5,81.5,0,0,1-5.61-30.37,78.76,78.76,0,0,1,5.52-30,68.22,68.22,0,0,1,15.47-23.3,69.58,69.58,0,0,1,24-15.19,85.55,85.55,0,0,1,31-5.41H928v26.3H905.9a52.25,52.25,0,0,0-20,3.77A48.74,48.74,0,0,0,870,69.25,46.89,46.89,0,0,0,859.57,85a51.74,51.74,0,0,0-3.77,19.82,50.53,50.53,0,0,0,3.68,19.54,45,45,0,0,0,26.11,25.43,55.93,55.93,0,0,0,20.31,3.58H928v26.3Z"/><path class="cls-1" d="M1013.24,179.69a78.25,78.25,0,0,1-30.65-5.89,71.56,71.56,0,0,1-24.08-16.35A75,75,0,0,1,942.84,133a80.71,80.71,0,0,1-5.61-30.27,78.32,78.32,0,0,1,5.51-29.78A67.88,67.88,0,0,1,982.2,34.24a85.5,85.5,0,0,1,31-5.41h4.45a84.84,84.84,0,0,1,31.24,5.51,69.85,69.85,0,0,1,24,15.38,68.12,68.12,0,0,1,15.38,23.4,79,79,0,0,1,5.42,29.59A80.91,80.91,0,0,1,1088.1,133a74.41,74.41,0,0,1-15.77,24.47,72.87,72.87,0,0,1-24.08,16.35,77.59,77.59,0,0,1-30.56,5.89Zm0-124.56a52.67,52.67,0,0,0-19.92,3.68,47.67,47.67,0,0,0-15.76,10.25,47.06,47.06,0,0,0-10.45,15.67,52.06,52.06,0,0,0-3.77,20.11A50.71,50.71,0,0,0,967,124.38a45.16,45.16,0,0,0,26,25.43,55.12,55.12,0,0,0,20.21,3.58h4.45a54.33,54.33,0,0,0,20.41-3.68,46.89,46.89,0,0,0,15.76-10.15A44.66,44.66,0,0,0,1064,124.18a51.27,51.27,0,0,0,3.58-19.34,52.66,52.66,0,0,0-3.67-19.92,46.24,46.24,0,0,0-26.21-26.11,53.45,53.45,0,0,0-20-3.68Z"/><path class="cls-1" d="M1220.39,179.69h-36.75l-40-42.35a35.32,35.32,0,0,1-5.31-7,13.31,13.31,0,0,1-1.84-6.57q0-12.37,15.67-13.54,21.08-1.55,31.23-8.42t10.16-20.79q0-13-7.84-19.44t-22.34-6.48h-29V179.69H1108V28.83h55.89a72,72,0,0,1,22.25,3.38,52.78,52.78,0,0,1,18.08,9.87,46.17,46.17,0,0,1,12.09,16.15,52.78,52.78,0,0,1,4.45,22.24,54.78,54.78,0,0,1-2.32,15.47,44.55,44.55,0,0,1-7.74,14.9,51,51,0,0,1-14.31,12.28q-8.91,5.32-22.24,7.45Z"/><path class="cls-1" d="M1234.9,179.69V28.83h43.32A84.15,84.15,0,0,1,1309,34.24a70.86,70.86,0,0,1,24,15.19,69,69,0,0,1,15.67,23.3,77.65,77.65,0,0,1,5.6,30,80.36,80.36,0,0,1-5.7,30.37,75.23,75.23,0,0,1-15.76,24.47,72.4,72.4,0,0,1-24.08,16.25,77.88,77.88,0,0,1-30.47,5.89Zm26.3-124.56v98.26h17a53.55,53.55,0,0,0,20.31-3.68,47.2,47.2,0,0,0,15.67-10.15,44.81,44.81,0,0,0,10.15-15.38,51.27,51.27,0,0,0,3.58-19.34A53,53,0,0,0,1324.26,85,46.44,46.44,0,0,0,1314,69.25a47.67,47.67,0,0,0-15.76-10.35,52.32,52.32,0,0,0-20-3.77Z"/><path class="cls-1" d="M1369.13,179.69v-26.3h52.8q12.18,0,20.11-5.8T1450,132.5a17.47,17.47,0,0,0-2.12-8.51,21.21,21.21,0,0,0-5.81-6.67,27.44,27.44,0,0,0-8.89-4.36,39.41,39.41,0,0,0-11.22-1.54h-12a48.3,48.3,0,0,1-17.22-3A40.52,40.52,0,0,1,1379,99.91a39.87,39.87,0,0,1-9.09-13,40.5,40.5,0,0,1-3.29-16.54A39.65,39.65,0,0,1,1370,54a39.11,39.11,0,0,1,9.57-13.15,45,45,0,0,1,14.89-8.8,55.24,55.24,0,0,1,19.15-3.19h50.1v26.3h-51.45q-8.33,0-13.15,4.55a14.45,14.45,0,0,0-4.84,10.93,15.25,15.25,0,0,0,4.93,11.6q4.93,4.65,13.06,4.64h14.89a49.78,49.78,0,0,1,18.57,3.39,43.19,43.19,0,0,1,14.7,9.57,44.35,44.35,0,0,1,9.67,14.7,48.65,48.65,0,0,1,3.48,18.57,47,47,0,0,1-3.67,18.76,41.83,41.83,0,0,1-10.55,14.7,49.5,49.5,0,0,1-16.34,9.67,60.77,60.77,0,0,1-21.08,3.48Z"/><path class="cls-1" d="M165.26,180.29V8.32H195v142h46.74v30Z"/><path class="cls-1" d="M283.87,132v48.29h-30V8.32H311a69.88,69.88,0,0,1,26.46,4.74,58.39,58.39,0,0,1,19.84,13,56.86,56.86,0,0,1,12.57,19.62,67.3,67.3,0,0,1,4.41,24.58,67.35,67.35,0,0,1-4.41,24.59,56.13,56.13,0,0,1-12.68,19.62,58,58,0,0,1-19.95,12.89A70.66,70.66,0,0,1,311,132Zm26.23-30a41.19,41.19,0,0,0,14.44-2.42,33.2,33.2,0,0,0,11.14-6.73,30,30,0,0,0,7.16-10.14,32.9,32.9,0,0,0,0-25.35,30.06,30.06,0,0,0-7.16-10.15,31.86,31.86,0,0,0-11.14-6.61,42.88,42.88,0,0,0-14.44-2.31H283.87V102Z"/><path class="cls-1" d="M416.37,180.29h-30V8.32h30V78.21H467.3V8.32h30v172h-30v-72.1H416.37Z"/><path class="cls-1" d="M616.24,180.29h35L544.12,16a17.82,17.82,0,0,0-7.45-6.95A21.76,21.76,0,0,0,527.28,7a11,11,0,0,0-9,4.08Q515,15.16,515,22v158.3h29.15V146.71H595.4Zm-72.12-53V64.1l39.21,63.16Z"/><path class="cls-1" d="M144.21,11.08A11.33,11.33,0,0,0,135.06,7a22.62,22.62,0,0,0-9.59,2.09,18.06,18.06,0,0,0-7.61,7L8.51,180.29H44.23l21.28-33.58h52.35v33.58h29.77V22C147.63,17.44,146.48,13.8,144.21,11.08ZM77.83,127.26l40-63.16v63.16Z"/><path class="cls-1" d="M704.65,122.18a51.43,51.43,0,0,0,14.45-12.4,44.69,44.69,0,0,0,7.81-15,55.48,55.48,0,0,0,2.34-15.62,53.06,53.06,0,0,0-4.49-22.45,46.59,46.59,0,0,0-12.2-16.31,53.44,53.44,0,0,0-18.26-9.95A72.32,72.32,0,0,0,671.85,27H611.32V78.79l26.55,40.57V53.55h33.4q14.64,0,22.55,6.55t7.9,19.62q0,14.06-10.25,21t-31.53,8.49q-15.81,1.17-15.81,13.67a13.6,13.6,0,0,0,1.85,6.64,28.89,28.89,0,0,0,2,3.08l31.77,46.6h37.1L682.2,129.7Q695.67,127.56,704.65,122.18Z"/></svg>