<?xml version="1.0" encoding="utf-8"?>
<!-- Generator: Adobe Illustrator 25.2.1, SVG Export Plug-In . SVG Version: 6.00 Build 0)  -->
<svg version="1.1"
	 id="Lag_1" image-rendering="optimizeQuality" text-rendering="geometricPrecision" shape-rendering="geometricPrecision"
	 xmlns="http://www.w3.org/2000/svg" xmlns:xlink="http://www.w3.org/1999/xlink" x="0px" y="0px" viewBox="0 0 64 64"
	 style="enable-background:new 0 0 64 64;" xml:space="preserve">
<style type="text/css">
	.st0{fill-rule:evenodd;clip-rule:evenodd;fill:#FFFFFF;}
</style>
<path class="st0" d="M63.3,19.2c0,0-0.6-4.4-2.5-6.3c-2.4-2.5-5.2-2.6-6.4-2.7C45.4,9.5,32,9.5,32,9.5h0c0,0-13.4,0-22.4,0.7
	c-1.3,0.2-4,0.2-6.4,2.7c-1.9,1.9-2.5,6.3-2.5,6.3S0,24.4,0,29.6v4.9c0,5.2,0.6,10.4,0.6,10.4s0.6,4.4,2.5,6.4
	c2.4,2.5,5.6,2.5,7.1,2.7c5.1,0.5,21.8,0.6,21.8,0.6s13.5,0,22.4-0.7c1.3-0.1,4-0.2,6.4-2.7c1.9-1.9,2.5-6.4,2.5-6.4
	S64,39.6,64,34.4v-4.9C64,24.4,63.4,19.2,63.3,19.2L63.3,19.2z M25.4,40.3v-18l17.3,9C42.7,31.3,25.4,40.3,25.4,40.3z"/>
</svg>
