<?xml version="1.0" encoding="utf-8"?>
<!-- Generator: Adobe Illustrator 25.2.1, SVG Export Plug-In . SVG Version: 6.00 Build 0)  -->
<svg version="1.1"
	 id="Lag_1" image-rendering="optimizeQuality" text-rendering="geometricPrecision" shape-rendering="geometricPrecision"
	 xmlns="http://www.w3.org/2000/svg" xmlns:xlink="http://www.w3.org/1999/xlink" x="0px" y="0px" viewBox="0 0 1333.3 1333.3"
	 style="enable-background:new 0 0 1333.3 1333.3;" xml:space="preserve">
<style type="text/css">
	.st0{fill:#FFFFFF;}
</style>
<path class="st0" d="M666.7,0C298.5,0,0,298.5,0,666.7c0,368.2,298.5,666.7,666.7,666.7c368.2,0,666.7-298.4,666.7-666.7
	C1333.3,298.5,1034.9,0,666.7,0L666.7,0L666.7,0z M972.4,961.5c-11.9,19.6-37.6,25.8-57.2,13.8C758.7,879.7,561.7,858,329.6,911
	c-22.4,5.1-44.6-8.9-49.8-31.3c-5.1-22.4,8.8-44.7,31.3-49.8c254-58,471.8-33,647.5,74.3C978.2,916.4,984.4,941.9,972.4,961.5
	L972.4,961.5z M1054,780c-15.1,24.5-47,32.2-71.5,17.1c-179.2-110.2-452.3-142-664.3-77.7c-27.5,8.3-56.5-7.2-64.9-34.6
	c-8.3-27.5,7.2-56.5,34.7-64.8c242.1-73.5,543.1-37.9,748.9,88.6C1061.3,723.6,1069,755.6,1054,780L1054,780L1054,780z M1061,591
	c-214.9-127.6-569.4-139.4-774.5-77.1c-32.9,10-67.8-8.6-77.8-41.5c-10-33,8.6-67.8,41.6-77.8c235.5-71.5,627-57.7,874.3,89.2
	c29.7,17.6,39.4,55.9,21.8,85.4C1128.9,598.8,1090.6,608.6,1061,591L1061,591L1061,591z"/>
</svg>
