<?xml version="1.0" encoding="utf-8"?>
<!-- Generator: Adobe Illustrator 25.2.1, SVG Export Plug-In . SVG Version: 6.00 Build 0)  -->
<svg version="1.1" id="Layer_1" xmlns="http://www.w3.org/2000/svg" xmlns:xlink="http://www.w3.org/1999/xlink" x="0px" y="0px"
	 viewBox="0 0 222 222" style="enable-background:new 0 0 222 222;" xml:space="preserve">
<style type="text/css">
	.st0{fill:#FFFFFF;}
</style>
<path class="st0" d="M111.5,3C82,3,78.3,3.1,66.8,3.7c-9,0.2-17.9,1.9-26.3,5.1c-7.2,2.7-13.8,7-19.2,12.5
	c-5.5,5.4-9.8,12-12.5,19.2c-3.2,8.4-4.9,17.3-5,26.3C3.1,78.3,3,82,3,111.5s0.1,33.1,0.7,44.7c0.2,9,1.9,17.9,5.1,26.3
	c2.7,7.2,7,13.8,12.5,19.2c5.4,5.5,12,9.8,19.2,12.5c8.4,3.2,17.3,4.9,26.3,5c11.6,0.5,15.3,0.7,44.7,0.7s33.1-0.1,44.7-0.7
	c9-0.2,17.9-1.9,26.3-5c14.6-5.7,26.1-17.2,31.8-31.8c3.1-8.4,4.9-17.3,5.1-26.3c0.5-11.6,0.7-15.3,0.7-44.7s-0.1-33.2-0.7-44.7
	c-0.2-9-1.9-17.9-5.1-26.3c-2.7-7.2-7-13.8-12.5-19.2c-5.4-5.5-12-9.8-19.2-12.5c-8.5-3.2-17.4-4.9-26.4-5C144.6,3.1,141,3,111.5,3
	L111.5,3z M101.8,22.5h9.7c29,0,32.4,0.1,43.8,0.6c6.9,0.1,13.7,1.3,20.1,3.7c4.7,1.7,9,4.5,12.5,8.1c3.6,3.5,6.4,7.8,8.1,12.5
	c2.4,6.5,3.6,13.3,3.7,20.1c0.5,11.4,0.6,14.9,0.6,43.8s-0.1,32.4-0.6,43.8c-0.1,6.9-1.3,13.7-3.7,20.1
	c-3.7,9.5-11.1,16.9-20.6,20.6c-6.4,2.4-13.3,3.7-20.1,3.7c-11.4,0.5-14.9,0.6-43.8,0.6s-32.4-0.1-43.8-0.6
	c-6.9-0.1-13.7-1.4-20.1-3.7c-4.7-1.7-9-4.5-12.5-8.1c-3.6-3.5-6.4-7.8-8.1-12.5c-2.4-6.5-3.7-13.3-3.7-20.1
	c-0.5-11.4-0.6-14.9-0.6-43.8s0.1-32.4,0.6-43.8c0.1-6.9,1.3-13.7,3.7-20.1c1.7-4.7,4.5-9,8.1-12.5c3.5-3.6,7.8-6.4,12.5-8.1
	c6.5-2.4,13.3-3.7,20.1-3.7C77.7,22.7,81.5,22.5,101.8,22.5L101.8,22.5z M169.4,40.6c-7.2,0-13,5.8-13,13c0,7.2,5.8,13,13,13
	c7.2,0,13-5.8,13-13c0,0,0,0,0,0C182.5,46.4,176.6,40.6,169.4,40.6C169.4,40.6,169.4,40.6,169.4,40.6z M111.5,55.8
	c-30.8,0-55.7,24.9-55.7,55.7s24.9,55.7,55.7,55.7s55.7-24.9,55.7-55.7l0,0C167.2,80.7,142.3,55.8,111.5,55.8z M111.5,75.3
	c20,0,36.2,16.1,36.2,36.1c0,20-16.1,36.2-36.1,36.2c-20,0-36.2-16.1-36.2-36.1c0,0,0,0,0-0.1C75.4,91.6,91.6,75.4,111.5,75.3
	L111.5,75.3z"/>
</svg>
